<?xml version="1.0" encoding="utf-8"?>
<!-- Generator: Adobe Illustrator 19.2.0, SVG Export Plug-In . SVG Version: 6.00 Build 0)  -->
<svg version="1.1" id="Capa_1" xmlns="http://www.w3.org/2000/svg" xmlns:xlink="http://www.w3.org/1999/xlink" x="0px" y="0px"
	 viewBox="0 0 400 130.5" style="enable-background:new 0 0 400 130.5;" xml:space="preserve">
<style type="text/css">
	.st0{fill:#CDD624;}
	.st1{fill:#72B637;}
	.st2{fill:#7EB935;}
	.st3{fill:#88BD31;}
	.st4{fill:#9DC42E;}
	.st5{fill:#91C02E;}
	.st6{fill:#A9C82B;}
	.st7{fill:#C0D128;}
	.st8{fill:#B5CC2A;}
	.st9{fill:#67B339;}
	.st10{fill:#FFFFFF;}
</style>
<g id="XMLID_52_">
	<g id="XMLID_28_">
		<g id="XMLID_48_">
			<path id="path14_6_" class="st0" d="M33.7,30.6c0.4,0,30.2,0,30.6,0C64.1,30.2,49.2,0.4,49,0C48.8,0.4,33.9,30.2,33.7,30.6"/>
			<path id="path16_6_" class="st1" d="M67.4,98c0.4,0,30.2,0,30.6,0c-0.2-0.4-15.1-30.2-15.3-30.6C82.4,67.8,67.6,97.6,67.4,98"/>
			<path id="path18_6_" class="st2" d="M50.5,66.1c0.2,0.4,15.1,30.2,15.3,30.6c0.2-0.5,15.1-30.3,15.3-30.6
				C80.7,66.1,50.9,66.1,50.5,66.1"/>
			<path id="path20_6_" class="st3" d="M33.7,98c0.4,0,30.2,0,30.6,0C64.1,97.6,49.2,67.8,49,67.3C48.8,67.8,33.9,97.6,33.7,98"/>
			<path id="path22_6_" class="st4" d="M0,98c0.4,0,30.2,0,30.6,0c-0.2-0.4-15.1-30.2-15.3-30.6C15.1,67.8,0.2,97.6,0,98"/>
			<path id="path24_6_" class="st5" d="M16.8,66.1c0.2,0.4,15.1,30.2,15.3,30.6c0.2-0.5,15.1-30.3,15.3-30.6
				C47,66.1,17.3,66.1,16.8,66.1"/>
			<path id="path26_6_" class="st6" d="M50.5,64.3c0.4,0,30.2,0,30.6,0C81,63.9,66.1,34.1,65.8,33.6C65.6,34.1,50.7,63.9,50.5,64.3"
				/>
			<path id="path28_6_" class="st7" d="M16.8,64.3c0.4,0,30.2,0,30.6,0c-0.2-0.4-15.1-30.2-15.3-30.6C31.9,34.1,17,63.9,16.8,64.3"
				/>
			<path id="path30_6_" class="st8" d="M33.7,32.4c0.2,0.4,15.1,30.2,15.3,30.7c0.2-0.5,15.1-30.3,15.3-30.7
				C63.9,32.4,34.1,32.4,33.7,32.4"/>
			<path id="path32_2_" class="st9" d="M33.7,99.8c0.2,0.4,15.1,30.2,15.3,30.6c0.2-0.5,15.1-30.3,15.3-30.6
				C63.9,99.8,34.1,99.8,33.7,99.8"/>
		</g>
		<g id="XMLID_29_">
			<g>
				<path id="path34_9_" class="st10" d="M130.9,94.4h-9.2V49.6l-0.5,0.3l-1.1,0.7l-6.5,4.4v-9.4l17.2-10.2L130.9,94.4"/>
				<path id="path36_9_" class="st10" d="M157.8,43.4c-5,0-10.1,3.3-10.1,10.7v22.3c0,7.4,5.1,10.7,10.1,10.7
					c5,0,10.1-3.3,10.1-10.7V54.1C167.9,46.7,162.8,43.4,157.8,43.4L157.8,43.4z M157.8,95.6c-9.6,0-19.3-6.2-19.3-19.9V54.7
					c0-13.8,9.7-19.9,19.3-19.9c9.6,0,19.3,6.2,19.3,19.9v20.9C177.1,89.4,167.4,95.6,157.8,95.6L157.8,95.6"/>
				<path id="path38_9_" class="st10" d="M207,44.6v22.1h15.1c9.2,0,12.4-6,12.4-11.1c0-5.1-3.2-11.1-12.4-11.1H207L207,44.6
					L207,44.6z M207,94.4h-9.2V36H223c12.4,0,20.7,7.9,20.7,19.7c0,11.8-8.3,19.7-20.7,19.7h-16V94.4"/>
				<path id="path40_9_" class="st10" d="M252.9,44c-2.5,0-4.6-2.1-4.6-4.6c0-2.5,2.1-4.6,4.6-4.6c2.5,0,4.6,2.1,4.6,4.6
					C257.5,41.9,255.5,44,252.9,44L252.9,44z M256.9,94.4h-8V49.9h8V94.4"/>
				<path id="path42_9_" class="st10" d="M304.8,94.4h-8V69.5c0-10.6-6.5-12.9-12-12.9c-7.5,0-12.4,5-12.4,12.7v25h-8V49.9h8v9.3
					l0.6-1.2l0.9-1.7l0.4-0.6l0.2-0.3c2.7-4.2,7.6-6.6,13.4-6.6c9.6,0,17.1,8.2,17.1,18.7V94.4"/>
				<path id="path44_9_" class="st10" d="M334.1,55.5c-7,0-12.4,4.4-14.1,11.6l-0.2,0.8l-0.1,0.4h29.4l-0.1-0.4l-0.3-0.9
					C346.6,59.8,341.1,55.5,334.1,55.5L334.1,55.5z M335.4,95.6c-16,0-24.6-12.1-24.6-23.5c0-11.4,8.6-23.5,24.6-23.5
					c9.6,0,23.1,7.8,23.1,25.1v0.8h-38.7l0,0.3l0.1,0.7c0.6,7.3,7.3,13.1,15.2,13.1c5.3,0,10-2.4,13.7-6.9l6.7,3.7
					C350.1,92,342.9,95.5,335.4,95.6L335.4,95.6"/>
				<path id="path46_9_" class="st10" d="M381.3,95.6c-7.2,0-13.4-2.3-19.5-7.3l5.4-5.4c4,3.9,9.7,6.4,14.6,6.4
					c6.1,0,10.2-3.5,10.2-6.8c0-2.3-1.2-5.3-6.9-6.3l-5.7-1.1c-13.2-2.4-15.9-6.7-15.9-12.3c0-7,5.9-14.2,17.3-14.2
					c6,0,11.3,1.7,17,5.7l-4.4,5.4c-4-3.2-8.2-4.8-12.3-4.8c-4.7,0-9.5,2.3-9.5,6.8c0,3.1,2.2,5.1,6.9,5.9l10.1,1.9
					c7.8,1.5,11.5,5.1,11.5,11.4C400,88,394.1,95.6,381.3,95.6L381.3,95.6"/>
			</g>
		</g>
	</g>
</g>
</svg>
